<svg xmlns="http://www.w3.org/2000/svg" xmlns:xlink="http://www.w3.org/1999/xlink" viewBox="0,0,256,256" width="48px" height="48px" fill-rule="nonzero"><g transform="translate(25.6,25.6) scale(0.8,0.8)"><g fill="#ffffff" fill-rule="nonzero" stroke="none" stroke-width="1" stroke-linecap="butt" stroke-linejoin="miter" stroke-miterlimit="10" stroke-dasharray="" stroke-dashoffset="0" font-family="none" font-weight="none" font-size="none" text-anchor="none" style="mix-blend-mode: normal"><g transform="scale(10.66667,10.66667)"><g><path d="M8.136,13.745c1.657,0.003 3.314,0.001 4.972,0.002c-0.845,-2.103 -1.688,-4.206 -2.533,-6.308c-0.789,2.111 -1.597,4.215 -2.439,6.306z"></path><path d="M22,0h-20c-1.105,0 -2,0.895 -2,2v20c0,1.105 0.895,2 2,2h20c1.105,0 2,-0.895 2,-2v-20c0,-1.105 -0.895,-2 -2,-2zM21,20.625c-2.69,0 -5.38,0 -8.07,0c0,-0.294 0,-0.588 0,-0.881c0.601,-0.047 1.313,-0.018 1.76,-0.493c0.353,-0.423 0.151,-0.999 0.022,-1.471c-0.276,-0.786 -0.604,-1.552 -0.902,-2.33c-2.093,0 -4.186,0 -6.278,0c-0.264,0.728 -0.518,1.461 -0.807,2.18c-0.183,0.401 -0.402,0.818 -0.367,1.273c0.028,0.267 0.209,0.499 0.46,0.594c0.412,0.173 0.865,0.203 1.306,0.229c0.003,0.299 0.006,0.599 0.003,0.899c-1.708,0 -3.417,0 -5.127,0c0,-0.298 0,-0.597 0,-0.894c0.498,-0.071 1.119,-0.201 1.311,-0.735c1.77,-4.506 3.538,-9.015 5.309,-13.52c0.053,-0.096 0.042,-0.204 -0.007,-0.299c-0.243,-0.599 -0.483,-1.2 -0.725,-1.801c1.485,-0.002 2.97,-0.002 4.455,0.001c2.067,5.165 4.132,10.331 6.2,15.495c0.207,0.6 0.892,0.785 1.457,0.859z"></path></g></g></g></g></svg>
