<svg xmlns="http://www.w3.org/2000/svg"  viewBox="0 0 24 24" width="96px" height="96px"><g fill="#424242"><path d="m8.136 13.745c1.657.003 3.314.001 4.972.002-.845-2.103-1.688-4.206-2.533-6.308-.789 2.111-1.597 4.215-2.439 6.306z"/><path d="m22 0h-20c-1.105 0-2 .895-2 2v20c0 1.105.895 2 2 2h20c1.105 0 2-.895 2-2v-20c0-1.105-.895-2-2-2zm-1 20.625c-2.69 0-5.38 0-8.07 0 0-.294 0-.588 0-.881.601-.047 1.313-.018 1.76-.493.353-.423.151-.999.022-1.471-.276-.786-.604-1.552-.902-2.33-2.093 0-4.186 0-6.278 0-.264.728-.518 1.461-.807 2.18-.183.401-.402.818-.367 1.273.028.267.209.499.46.594.412.173.865.203 1.306.229.003.299.006.599.003.899-1.708 0-3.417 0-5.127 0 0-.298 0-.597 0-.894.498-.071 1.119-.201 1.311-.735 1.77-4.506 3.538-9.015 5.309-13.52.053-.096.042-.204-.007-.299-.243-.599-.483-1.2-.725-1.801 1.485-.002 2.97-.002 4.455.001 2.067 5.165 4.132 10.331 6.2 15.495.207.6.892.785 1.457.859z"/></g></svg>