<svg xmlns="http://www.w3.org/2000/svg" width="300" height="210">
  <g fill="none" stroke-width="2">
    <path stroke="#c51823" stroke-opacity=".918" d="M11.94 0 1.52.42a.68.67-1.3 0 0-.65.67v207.76a.18.18 0 0 0 .18.18h297.48a.51.51 0 0 0 .51-.51V1.15a.74.74 0 0 0-.71-.74L288.19 0" vector-effect="non-scaling-stroke"/>
    <path stroke="#e28c91" d="M287.59 12.84a.47.47 0 0 0-.47-.47H12.92a.47.47 0 0 0-.47.47V197.1a.47.47 0 0 0 .47.47h274.2a.47.47 0 0 0 .47-.47V12.84" vector-effect="non-scaling-stroke"/>
    <path stroke="#e28c91" d="M282.36 17.91a.33.33 0 0 0-.33-.33H18.01a.33.33 0 0 0-.33.33v174.1a.33.33 0 0 0 .33.33h264.02a.33.33 0 0 0 .33-.33V17.91" vector-effect="non-scaling-stroke"/>
    <path stroke="#e28c91" d="M51.64 64.94a.29.29 0 0 0 .3.29c7.17-.19 15.66-1 15.72 8.45q.18 32.93.01 66.25c-.04 9.32-9.88 8.58-16.58 8.55a.7.7 0 0 0-.7.7v1.87a.8.79-90 0 0 .79.8q46.13 0 52.57-.01c15.52-.04 28.36-8.27 30.68-24.32 1.59-11.05-5.22-21.21-15.3-25.33q-4.21-1.72-4.36-1.8a.36.36 0 0 1 .08-.66c10.79-2.78 18.17-13.67 13.46-24.59q-4.25-9.86-16.53-12.65-7.79-1.77-13.72-1.88-21.81-.41-46.17 1.23a.26.26 0 0 0-.25.26v2.84M251.83 62.01a.66.66 0 0 0-.66-.69h-33.91a.46.46 0 0 0-.46.46v2.8a.56.55-88.9 0 0 .53.56c6.55.23 12.52.72 13.24 8.83q.46 5.21.46 8.3-.04 32.24-.04 32.99c.02 11.76-4.25 22.87-15.41 27.63-14.6 6.21-38.13 4.66-46.05-11.35q-3.27-6.62-3.4-13.62-.25-14.45-.02-44.14c.06-7.92 5.21-8.8 11.97-8.59a.63.63 0 0 0 .65-.63v-2.69a.56.55 0 0 0-.56-.55H141a.46.46 0 0 0-.46.46v2.82a.51.51 0 0 0 .51.51c8.59.13 12.01.81 11.99 10.39q-.08 34.71-.08 34.84-.19 13.35 1.66 19.1c7.04 21.84 30.05 27.46 50.22 24.6 15.58-2.21 28.18-10.95 32.43-26.48q1.54-5.61 1.41-18.72-.15-15.88-.04-32.15.07-10.52 10.07-11.43 2.06-.19 2.41-.12a.49.48-82.7 0 0 .59-.46l.12-2.67" vector-effect="non-scaling-stroke"/>
    <path stroke="#e28c91" d="M80.82 99.15H96c8.24 0 17.76-2.36 19.53-11.96q.94-5.09-.03-9.08c-2.98-12.31-14.88-14.75-26.01-14.21q-7 .34-8.66.39a.46.46 0 0 0-.45.46v33.96a.44.44 0 0 0 .44.44M80.42 103.2q-.17 18.85.07 32.01c.23 12.02 10.8 12.72 20.06 11.86 12.1-1.13 19.67-8.95 19.87-21.6.21-12.81-8.89-21.41-21.44-22.75q-3.12-.33-17.93-.16a.64.64 0 0 0-.63.64" vector-effect="non-scaling-stroke"/>
  </g>
  <path fill="#c51722" fill-opacity=".831" d="M11.94 0 1.52.42a.68.67-1.3 0 0-.65.67v207.76a.18.18 0 0 0 .18.18h297.48a.51.51 0 0 0 .51-.51V1.15a.74.74 0 0 0-.71-.74L288.19 0H300v210H0V0h11.94Z"/>
  <path fill="#c51823" d="m288.19 0 10.14.41a.74.74 0 0 1 .71.74v207.37a.51.51 0 0 1-.51.51H1.05a.18.18 0 0 1-.18-.18V1.09a.68.67-1.3 0 1 .65-.67L11.94 0h276.25Zm-.6 12.84a.47.47 0 0 0-.47-.47H12.92a.47.47 0 0 0-.47.47V197.1a.47.47 0 0 0 .47.47h274.2a.47.47 0 0 0 .47-.47V12.84Z"/>
  <path fill="#fff" d="M287.59 197.1a.47.47 0 0 1-.47.47H12.92a.47.47 0 0 1-.47-.47V12.84a.47.47 0 0 1 .47-.47h274.2a.47.47 0 0 1 .47.47V197.1Zm-5.23-179.19a.33.33 0 0 0-.33-.33H18.01a.33.33 0 0 0-.33.33v174.1a.33.33 0 0 0 .33.33h264.02a.33.33 0 0 0 .33-.33V17.91Z"/>
  <path fill="#c51823" d="M282.36 192.01a.33.33 0 0 1-.33.33H18.01a.33.33 0 0 1-.33-.33V17.91a.33.33 0 0 1 .33-.33h264.02a.33.33 0 0 1 .33.33v174.1ZM51.64 64.94a.29.29 0 0 0 .3.29c7.17-.19 15.66-1 15.72 8.45q.18 32.93.01 66.25c-.04 9.32-9.88 8.58-16.58 8.55a.7.7 0 0 0-.7.7v1.87a.8.79-90 0 0 .79.8q46.13 0 52.57-.01c15.52-.04 28.36-8.27 30.68-24.32 1.59-11.05-5.22-21.21-15.3-25.33q-4.21-1.72-4.36-1.8a.36.36 0 0 1 .08-.66c10.79-2.78 18.17-13.67 13.46-24.59q-4.25-9.86-16.53-12.65-7.79-1.77-13.72-1.88-21.81-.41-46.17 1.23a.26.26 0 0 0-.25.26v2.84Zm200.19-2.93a.66.66 0 0 0-.66-.69h-33.91a.46.46 0 0 0-.46.46v2.8a.56.55-88.9 0 0 .53.56c6.55.23 12.52.72 13.24 8.83q.46 5.21.46 8.3-.04 32.24-.04 32.99c.02 11.76-4.25 22.87-15.41 27.63-14.6 6.21-38.13 4.66-46.05-11.35q-3.27-6.62-3.4-13.62-.25-14.45-.02-44.14c.06-7.92 5.21-8.8 11.97-8.59a.63.63 0 0 0 .65-.63v-2.69a.56.55 0 0 0-.56-.55H141a.46.46 0 0 0-.46.46v2.82a.51.51 0 0 0 .51.51c8.59.13 12.01.81 11.99 10.39q-.08 34.71-.08 34.84-.19 13.35 1.66 19.1c7.04 21.84 30.05 27.46 50.22 24.6 15.58-2.21 28.18-10.95 32.43-26.48q1.54-5.61 1.41-18.72-.15-15.88-.04-32.15.07-10.52 10.07-11.43 2.06-.19 2.41-.12a.49.48-82.7 0 0 .59-.46l.12-2.67Z"/>
  <path fill="#fff" d="M51.89 61.84q24.36-1.64 46.17-1.23 5.93.11 13.72 1.88 12.28 2.79 16.53 12.65c4.71 10.92-2.67 21.81-13.46 24.59a.36.36 0 0 0-.08.66q.15.08 4.36 1.8c10.08 4.12 16.89 14.28 15.3 25.33-2.32 16.05-15.16 24.28-30.68 24.32q-6.44.01-52.57.01a.8.79-90 0 1-.79-.8v-1.87a.7.7 0 0 1 .7-.7c6.7.03 16.54.77 16.58-8.55q.17-33.32-.01-66.25c-.06-9.45-8.55-8.64-15.72-8.45a.29.29 0 0 1-.3-.29V62.1a.26.26 0 0 1 .25-.26Zm28.93 37.31H96c8.24 0 17.76-2.36 19.53-11.96q.94-5.09-.03-9.08c-2.98-12.31-14.88-14.75-26.01-14.21q-7 .34-8.66.39a.46.46 0 0 0-.45.46v33.96a.44.44 0 0 0 .44.44Zm-.4 4.05q-.17 18.85.07 32.01c.23 12.02 10.8 12.72 20.06 11.86 12.1-1.13 19.67-8.95 19.87-21.6.21-12.81-8.89-21.41-21.44-22.75q-3.12-.33-17.93-.16a.64.64 0 0 0-.63.64ZM251.12 65.14q-.35-.07-2.41.12-10 .91-10.07 11.43-.11 16.27.04 32.15.13 13.11-1.41 18.72c-4.25 15.53-16.85 24.27-32.43 26.48-20.17 2.86-43.18-2.76-50.22-24.6q-1.85-5.75-1.66-19.1 0-.13.08-34.84c.02-9.58-3.4-10.26-11.99-10.39a.51.51 0 0 1-.51-.51v-2.82a.46.46 0 0 1 .46-.46h37.17a.56.55 0 0 1 .56.55v2.69a.63.63 0 0 1-.65.63c-6.76-.21-11.91.67-11.97 8.59q-.23 29.69.02 44.14.13 7 3.4 13.62c7.92 16.01 31.45 17.56 46.05 11.35 11.16-4.76 15.43-15.87 15.41-27.63q0-.75.04-32.99 0-3.09-.46-8.3c-.72-8.11-6.69-8.6-13.24-8.83a.56.55-88.9 0 1-.53-.56v-2.8a.46.46 0 0 1 .46-.46h33.91a.66.66 0 0 1 .66.69l-.12 2.67a.49.48-82.7 0 1-.59.46Z"/>
  <path fill="#c51823" d="M80.82 99.15a.44.44 0 0 1-.44-.44V64.75a.46.46 0 0 1 .45-.46q1.66-.05 8.66-.39c11.13-.54 23.03 1.9 26.01 14.21q.97 3.99.03 9.08c-1.77 9.6-11.29 11.96-19.53 11.96H80.82ZM81.05 102.56q14.81-.17 17.93.16c12.55 1.34 21.65 9.94 21.44 22.75-.2 12.65-7.77 20.47-19.87 21.6-9.26.86-19.83.16-20.06-11.86q-.24-13.16-.07-32.01a.64.64 0 0 1 .63-.64Z"/>
</svg>
