<?xml version="1.0" encoding="UTF-8"?>
<svg id="Layer_1" xmlns="http://www.w3.org/2000/svg" version="1.1" viewBox="0 0 50 35.2">
  <!-- Generator: Adobe Illustrator 29.5.1, SVG Export Plug-In . SVG Version: 2.1.0 Build 141)  -->
  <g>
    <path d="M2,.2H.3c0,0-.1.1-.1.2v34.6s0,0,0,0h49.6s0,0,0,0h0V.4c0,0,0-.1-.1-.1h-1.7" vector-effect="non-scaling-stroke" fill="none" stroke="#c51823" stroke-opacity=".9" stroke-width=".3"/>
    <path d="M48,2.3s0,0,0,0H2.2s0,0,0,0h0v30.7s0,0,0,0h45.7s0,0,0,0h0V2.3" vector-effect="non-scaling-stroke" fill="none" stroke="#e28c91" stroke-width=".3"/>
    <path d="M47.1,3.2s0,0,0,0H3s0,0,0,0v29s0,0,0,0h44s0,0,0,0V3.2" vector-effect="non-scaling-stroke" fill="none" stroke="#e28c91" stroke-width=".3"/>
    <path d="M8.6,11s0,0,0,0c0,0,0,0,0,0,1.2,0,2.6-.2,2.6,1.4,0,3.7,0,7.3,0,11,0,1.6-1.6,1.4-2.8,1.4,0,0-.1,0-.1.1v.3c0,0,0,.1.1.1h0c5.1,0,8,0,8.8,0,2.6,0,4.7-1.4,5.1-4.1.3-1.8-.9-3.5-2.6-4.2-.5-.2-.7-.3-.7-.3,0,0,0,0,0,0,0,0,0,0,0,0,1.8-.5,3-2.3,2.2-4.1-.5-1.1-1.4-1.8-2.8-2.1-.9-.2-1.6-.3-2.3-.3-2.4,0-5,0-7.7.2,0,0,0,0,0,0v.5M42,10.5c0,0,0-.1-.1-.1,0,0,0,0,0,0h-5.7s0,0,0,0h0v.5c0,0,0,0,0,0,1.1,0,2.1.1,2.2,1.5,0,.6,0,1,0,1.4,0,3.6,0,5.4,0,5.5,0,2-.7,3.8-2.6,4.6-2.4,1-6.4.8-7.7-1.9-.4-.7-.6-1.5-.6-2.3,0-1.6,0-4.1,0-7.4,0-1.3.9-1.5,2-1.4,0,0,.1,0,.1-.1,0,0,0,0,0,0v-.4c0,0,0,0,0,0h-6.2s0,0,0,0h0v.5s0,0,0,0c1.4,0,2,.1,2,1.7,0,3.9,0,5.8,0,5.8,0,1.5,0,2.5.3,3.2,1.2,3.6,5,4.6,8.4,4.1,2.6-.4,4.7-1.8,5.4-4.4.2-.6.2-1.7.2-3.1,0-1.8,0-3.6,0-5.4,0-1.2.6-1.8,1.7-1.9.2,0,.4,0,.4,0,0,0,0,0,0,0,0,0,0,0,0,0v-.4" vector-effect="non-scaling-stroke" fill="none" stroke="#e28c91" stroke-width=".3"/>
    <path d="M13.5,16.7h2.5c1.4,0,3-.4,3.3-2,.1-.6.1-1.1,0-1.5-.5-2.1-2.5-2.5-4.3-2.4-.8,0-1.3,0-1.4,0,0,0,0,0,0,0v5.7s0,0,0,0h0M13.4,17.4c0,2.1,0,3.9,0,5.3,0,2,1.8,2.1,3.3,2,2-.2,3.3-1.5,3.3-3.6,0-2.1-1.5-3.6-3.6-3.8-.3,0-1.3,0-3,0,0,0-.1,0-.1.1" vector-effect="non-scaling-stroke" fill="none" stroke="#e28c91" stroke-width=".3"/>
  </g>
  <path d="M2,.2H.3c0,0-.1.1-.1.2v34.6s0,0,0,0h49.6s0,0,0,0h0V.4c0,0,0-.1-.1-.1h-1.7c0,0,2,0,2,0v35H0V.2h2Z" fill="#c51722" fill-opacity=".8"/>
  <path d="M48.1.2h1.7c0,0,.1.1.1.2v34.6s0,0,0,0H.2s0,0,0,0V.3c0,0,0-.1.1-.1h1.7c0,0,46,0,46,0ZM48,2.3s0,0,0,0H2.2s0,0,0,0h0v30.7s0,0,0,0h45.7s0,0,0,0h0V2.3h0Z" fill="#c51823"/>
  <path d="M48,33s0,0,0,0H2.2s0,0,0,0h0V2.3s0,0,0,0h45.7s0,0,0,0h0v30.7h0ZM47.1,3.2s0,0,0,0H3s0,0,0,0v29s0,0,0,0h44s0,0,0,0c0,0,0-29,0-29Z" fill="#fff"/>
  <path d="M47.1,32.2s0,0,0,0H3s0,0,0,0h0V3.2s0,0,0,0h44s0,0,0,0v29h0ZM8.6,11s0,0,0,0c0,0,0,0,0,0,1.2,0,2.6-.2,2.6,1.4,0,3.7,0,7.3,0,11,0,1.6-1.6,1.4-2.8,1.4,0,0-.1,0-.1.1v.3c0,0,0,.1.1.1h0c5.1,0,8,0,8.8,0,2.6,0,4.7-1.4,5.1-4.1.3-1.8-.9-3.5-2.6-4.2-.5-.2-.7-.3-.7-.3,0,0,0,0,0,0,0,0,0,0,0,0,1.8-.5,3-2.3,2.2-4.1-.5-1.1-1.4-1.8-2.8-2.1-.9-.2-1.6-.3-2.3-.3-2.4,0-5,0-7.7.2,0,0,0,0,0,0v.5h0ZM42,10.5c0,0,0-.1-.1-.1,0,0,0,0,0,0h-5.7s0,0,0,0h0v.5c0,0,0,0,0,0,1.1,0,2.1.1,2.2,1.5,0,.6,0,1,0,1.4,0,3.6,0,5.4,0,5.5,0,2-.7,3.8-2.6,4.6-2.4,1-6.4.8-7.7-1.9-.4-.7-.6-1.5-.6-2.3,0-1.6,0-4.1,0-7.4,0-1.3.9-1.5,2-1.4,0,0,.1,0,.1-.1,0,0,0,0,0,0v-.4c0,0,0,0,0,0h-6.2s0,0,0,0h0v.5s0,0,0,0c1.4,0,2,.1,2,1.7,0,3.9,0,5.8,0,5.8,0,1.5,0,2.5.3,3.2,1.2,3.6,5,4.6,8.4,4.1,2.6-.4,4.7-1.8,5.4-4.4.2-.6.2-1.7.2-3.1,0-1.8,0-3.6,0-5.4,0-1.2.6-1.8,1.7-1.9.2,0,.4,0,.4,0,0,0,0,0,0,0,0,0,0,0,0,0v-.4s0,0,0,0Z" fill="#c51823"/>
  <path d="M8.7,10.5c2.7-.2,5.3-.3,7.7-.2.7,0,1.4.1,2.3.3,1.4.3,2.3,1,2.8,2.1.8,1.8-.4,3.6-2.2,4.1,0,0,0,0,0,0,0,0,0,0,0,0,0,0,.3.1.7.3,1.7.7,2.8,2.4,2.5,4.2-.4,2.7-2.5,4-5.1,4.1-.7,0-3.6,0-8.8,0s-.1,0-.1-.1h0v-.3c0,0,0-.1.1-.1,1.1,0,2.8.1,2.8-1.4,0-3.7,0-7.4,0-11,0-1.6-1.4-1.4-2.6-1.4,0,0,0,0,0,0,0,0,0,0,0,0v-.5s0,0,0,0h0ZM13.5,16.7h2.5c1.4,0,3-.4,3.3-2,.1-.6.1-1.1,0-1.5-.5-2.1-2.5-2.5-4.3-2.4-.8,0-1.3,0-1.4,0,0,0,0,0,0,0v5.7s0,0,0,0,0,0,0,0ZM13.4,17.4c0,2.1,0,3.9,0,5.3,0,2,1.8,2.1,3.3,2,2-.2,3.3-1.5,3.3-3.6,0-2.1-1.5-3.6-3.6-3.8-.3,0-1.3,0-3,0,0,0-.1,0-.1.1ZM41.9,11s-.2,0-.4,0c-1.1.1-1.7.7-1.7,1.9,0,1.8,0,3.6,0,5.4,0,1.5,0,2.5-.2,3.1-.7,2.6-2.8,4-5.4,4.4-3.4.5-7.2-.5-8.4-4.1-.2-.6-.3-1.7-.3-3.2,0,0,0-1.9,0-5.8,0-1.6-.6-1.7-2-1.7,0,0,0,0,0,0v-.5s0,0,0,0h6.2c0,0,0,0,0,0v.4c0,0,0,.1-.1.1,0,0,0,0,0,0-1.1,0-2,.1-2,1.4,0,3.3,0,5.8,0,7.4,0,.8.2,1.5.6,2.3,1.3,2.7,5.2,2.9,7.7,1.9,1.9-.8,2.6-2.6,2.6-4.6,0,0,0-1.9,0-5.5,0-.3,0-.8,0-1.4-.1-1.4-1.1-1.4-2.2-1.5,0,0,0,0,0,0v-.5s0,0,0,0h5.7c0,0,.1,0,.1.1,0,0,0,0,0,0v.4s0,0-.1,0c0,0,0,0,0,0h0Z" fill="#fff"/>
  <path d="M13.5,16.7s0,0,0,0h0v-5.7s0,0,0,0c.2,0,.7,0,1.4,0,1.9,0,3.8.3,4.3,2.4.1.4.1.9,0,1.5-.3,1.6-1.9,2-3.3,2h-2.5ZM13.5,17.3c1.6,0,2.6,0,3,0,2.1.2,3.6,1.7,3.6,3.8,0,2.1-1.3,3.4-3.3,3.6-1.5.1-3.3,0-3.3-2,0-1.5,0-3.2,0-5.3,0,0,0-.1.1-.1h0Z" fill="#c51823"/>
</svg>