<?xml version="1.0" encoding="UTF-8"?>
<svg id="Layer_1" xmlns="http://www.w3.org/2000/svg" version="1.1" viewBox="0 0 64 45">
  <!-- Generator: Adobe Illustrator 29.5.1, SVG Export Plug-In . SVG Version: 2.1.0 Build 141)  -->
  <defs>
    <style>
      .st0 {
        stroke: #e28c91;
      }

      .st0, .st1 {
        fill: none;
        stroke-width: .4px;
      }

      .st2 {
        fill: #fff;
      }

      .st1 {
        stroke: #c51823;
        stroke-opacity: .9;
      }

      .st3 {
        fill: #c51722;
        fill-opacity: .8;
      }

      .st4 {
        fill: #c51823;
      }
    </style>
  </defs>
  <g>
    <path class="st1" d="M2.6.2H.4c0,0-.1.2-.1.2v44.3s0,0,0,0h63.5c0,0,.1,0,.1-.1h0V.5c0,0,0-.2-.2-.2h-2.2" vector-effect="non-scaling-stroke"/>
    <path class="st0" d="M61.4,3c0,0,0-.1-.1-.1H2.8c0,0-.1,0-.1.1h0v39.3c0,0,0,.1.1.1h58.5c0,0,.1,0,.1-.1h0V3" vector-effect="non-scaling-stroke"/>
    <path class="st0" d="M60.3,4s0,0,0,0H3.9s0,0,0,0v37.1s0,0,0,0h56.3s0,0,0,0V4" vector-effect="non-scaling-stroke"/>
    <path class="st0" d="M11,14.1s0,0,0,0c0,0,0,0,0,0,1.5,0,3.3-.2,3.4,1.8,0,4.7,0,9.4,0,14.1,0,2-2.1,1.8-3.5,1.8,0,0-.1,0-.1.1v.4c0,0,0,.2.2.2h0c6.6,0,10.3,0,11.2,0,3.3,0,6.1-1.8,6.5-5.2.3-2.4-1.1-4.5-3.3-5.4-.6-.2-.9-.4-.9-.4,0,0,0,0,0-.1,0,0,0,0,0,0,2.3-.6,3.9-2.9,2.9-5.2-.6-1.4-1.8-2.3-3.5-2.7-1.1-.3-2.1-.4-2.9-.4-3.1,0-6.4,0-9.8.3,0,0,0,0,0,0v.6" vector-effect="non-scaling-stroke"/>
    <path class="st0" d="M53.8,13.4c0,0,0-.1-.1-.1,0,0,0,0,0,0h-7.2c0,0,0,0,0,0v.6c0,0,0,.1.1.1,1.4,0,2.7.2,2.8,1.9,0,.7,0,1.3,0,1.8,0,4.6,0,6.9,0,7,0,2.5-.9,4.9-3.3,5.9-3.1,1.3-8.1,1-9.8-2.4-.5-.9-.7-1.9-.7-2.9,0-2.1,0-5.2,0-9.4,0-1.7,1.1-1.9,2.6-1.8,0,0,.1,0,.1-.1,0,0,0,0,0,0v-.6c0,0,0-.1-.1-.1h-7.9c0,0,0,0,0,0h0v.6c0,0,0,.1.1.1h0c1.8,0,2.6.2,2.6,2.2,0,4.9,0,7.4,0,7.4,0,1.9,0,3.3.4,4.1,1.5,4.7,6.4,5.9,10.7,5.2,3.3-.5,6-2.3,6.9-5.6.2-.8.3-2.1.3-4,0-2.3,0-4.5,0-6.9,0-1.5.7-2.3,2.1-2.4.3,0,.5,0,.5,0,0,0,.1,0,.1,0,0,0,0,0,0,0v-.6" vector-effect="non-scaling-stroke"/>
    <path class="st0" d="M17.3,21.4h3.2c1.8,0,3.8-.5,4.2-2.6.1-.7.1-1.4,0-1.9-.6-2.6-3.2-3.1-5.5-3-1,0-1.6,0-1.8,0,0,0,0,0,0,0v7.2c0,0,0,0,0,0h0" vector-effect="non-scaling-stroke"/>
    <path class="st0" d="M17.2,22.2c0,2.7,0,5,0,6.8,0,2.6,2.3,2.7,4.3,2.5,2.6-.2,4.2-1.9,4.2-4.6,0-2.7-1.9-4.6-4.6-4.9-.4,0-1.7,0-3.8,0,0,0-.1,0-.1.1" vector-effect="non-scaling-stroke"/>
  </g>
  <path class="st3" d="M2.6.2H.4c0,0-.1.2-.1.2v44.3s0,0,0,0h63.5c0,0,.1,0,.1-.1h0V.5c0,0,0-.2-.2-.2h-2.2c0,0,2.5,0,2.5,0v44.8H0V.2h2.5Z"/>
  <path class="st4" d="M61.5.2h2.2c0,0,.2.2.2.2v44.2c0,0,0,.1-.1.1H.3s0,0,0,0V.4c0,0,0-.1.1-.1h2.2c0,0,58.9,0,58.9,0ZM61.4,3c0,0,0-.1-.1-.1H2.8c0,0-.1,0-.1.1h0v39.3c0,0,0,.1.1.1h58.5c0,0,.1,0,.1-.1h0V3Z"/>
  <path class="st2" d="M61.4,42.3c0,0,0,.1-.1.1H2.8c0,0-.1,0-.1-.1h0V3c0,0,0-.1.1-.1h58.5c0,0,.1,0,.1.1h0v39.3ZM60.3,4s0,0,0,0H3.9s0,0,0,0v37.1s0,0,0,0h56.3s0,0,0,0V4Z"/>
  <path class="st4" d="M60.3,41.2s0,0,0,0H3.9s0,0,0,0h0V4s0,0,0,0h56.3s0,0,0,0v37.1ZM11,14.1s0,0,0,0c0,0,0,0,0,0,1.5,0,3.3-.2,3.4,1.8,0,4.7,0,9.4,0,14.1,0,2-2.1,1.8-3.5,1.8,0,0-.1,0-.1.1v.4c0,0,0,.2.2.2h0c6.6,0,10.3,0,11.2,0,3.3,0,6.1-1.8,6.5-5.2.3-2.4-1.1-4.5-3.3-5.4-.6-.2-.9-.4-.9-.4,0,0,0,0,0-.1,0,0,0,0,0,0,2.3-.6,3.9-2.9,2.9-5.2-.6-1.4-1.8-2.3-3.5-2.7-1.1-.3-2.1-.4-2.9-.4-3.1,0-6.4,0-9.8.3,0,0,0,0,0,0v.6ZM53.8,13.4c0,0,0-.1-.1-.1,0,0,0,0,0,0h-7.2c0,0,0,0,0,0v.6c0,0,0,.1.1.1,1.4,0,2.7.2,2.8,1.9,0,.7,0,1.3,0,1.8,0,4.6,0,6.9,0,7,0,2.5-.9,4.9-3.3,5.9-3.1,1.3-8.1,1-9.8-2.4-.5-.9-.7-1.9-.7-2.9,0-2.1,0-5.2,0-9.4,0-1.7,1.1-1.9,2.6-1.8,0,0,.1,0,.1-.1,0,0,0,0,0,0v-.6c0,0,0-.1-.1-.1h-7.9c0,0,0,0,0,0h0v.6c0,0,0,.1.1.1h0c1.8,0,2.6.2,2.6,2.2,0,4.9,0,7.4,0,7.4,0,1.9,0,3.3.4,4.1,1.5,4.7,6.4,5.9,10.7,5.2,3.3-.5,6-2.3,6.9-5.6.2-.8.3-2.1.3-4,0-2.3,0-4.5,0-6.9,0-1.5.7-2.3,2.1-2.4.3,0,.5,0,.5,0,0,0,.1,0,.1,0,0,0,0,0,0,0v-.6Z"/>
  <path class="st2" d="M11.1,13.4c3.5-.2,6.7-.3,9.8-.3.8,0,1.8.1,2.9.4,1.7.4,2.9,1.3,3.5,2.7,1,2.3-.6,4.7-2.9,5.2,0,0,0,0,0,0,0,0,0,0,0,0,0,0,.3.1.9.4,2.2.9,3.6,3,3.3,5.4-.5,3.4-3.2,5.2-6.5,5.2-.9,0-4.7,0-11.2,0s-.2,0-.2-.2h0v-.4c0,0,0-.1.1-.1,1.4,0,3.5.2,3.5-1.8,0-4.7,0-9.4,0-14.1,0-2-1.8-1.8-3.4-1.8,0,0,0,0,0,0,0,0,0,0,0,0v-.6s0,0,0,0ZM17.3,21.4h3.2c1.8,0,3.8-.5,4.2-2.6.1-.7.1-1.4,0-1.9-.6-2.6-3.2-3.1-5.5-3-1,0-1.6,0-1.8,0,0,0,0,0,0,0v7.2c0,0,0,0,0,0h0ZM17.2,22.2c0,2.7,0,5,0,6.8,0,2.6,2.3,2.7,4.3,2.5,2.6-.2,4.2-1.9,4.2-4.6,0-2.7-1.9-4.6-4.6-4.9-.4,0-1.7,0-3.8,0,0,0-.1,0-.1.1Z"/>
  <path class="st2" d="M53.6,14.1s-.2,0-.5,0c-1.4.1-2.1.9-2.1,2.4,0,2.3,0,4.6,0,6.9,0,1.9,0,3.2-.3,4-.9,3.3-3.6,5.2-6.9,5.6-4.3.6-9.2-.6-10.7-5.2-.3-.8-.4-2.2-.4-4.1,0,0,0-2.5,0-7.4,0-2-.7-2.2-2.6-2.2,0,0-.1,0-.1-.1h0v-.6c0,0,0,0,0,0h7.9c0,0,.1,0,.1.1v.6c0,0,0,.1-.1.1,0,0,0,0,0,0-1.4,0-2.5.1-2.6,1.8,0,4.2,0,7.4,0,9.4,0,1,.3,2,.7,2.9,1.7,3.4,6.7,3.7,9.8,2.4,2.4-1,3.3-3.4,3.3-5.9,0-.1,0-2.5,0-7,0-.4,0-1,0-1.8-.2-1.7-1.4-1.8-2.8-1.9,0,0-.1,0-.1-.1v-.6c0,0,0,0,0,0h7.2c0,0,.1,0,.1.1,0,0,0,0,0,0v.6c0,0,0,.1-.1.1,0,0,0,0,0,0Z"/>
  <path class="st4" d="M17.3,21.4c0,0,0,0,0,0h0v-7.2c0,0,0,0,0,0,.2,0,.9,0,1.8,0,2.4-.1,4.9.4,5.5,3,.1.6.1,1.2,0,1.9-.4,2-2.4,2.6-4.2,2.6h-3.2Z"/>
  <path class="st4" d="M17.3,22.1c2.1,0,3.4,0,3.8,0,2.7.3,4.6,2.1,4.6,4.9,0,2.7-1.7,4.4-4.2,4.6-2,.2-4.2,0-4.3-2.5,0-1.9,0-4.1,0-6.8,0,0,0-.1.1-.1Z"/>
</svg>