<svg xmlns="http://www.w3.org/2000/svg" xmlns:xlink="http://www.w3.org/1999/xlink" viewBox="0,0,256,256" width="48px" height="48px" fill-rule="nonzero"><g transform=""><g fill="#ffffff" fill-rule="nonzero" stroke="none" stroke-width="1" stroke-linecap="butt" stroke-linejoin="miter" stroke-miterlimit="10" stroke-dasharray="" stroke-dashoffset="0" font-family="none" font-weight="none" font-size="none" text-anchor="none" style="mix-blend-mode: normal"><g transform="scale(10.66667,10.66667)"><path d="M8.564,23.5c-0.089,0 -0.187,-0.008 -0.292,-0.028c-4.973,-1.617 -8.272,-6.109 -8.272,-11.193c0,-6.495 5.383,-11.779 12,-11.779c6.617,0 12,5.284 12,11.779c0,5.091 -3.312,9.577 -8.24,11.162c-0.569,0.113 -0.893,-0.044 -1.073,-0.193c-0.235,-0.194 -0.37,-0.493 -0.37,-0.819l0.004,-0.624c0.004,-0.579 0.011,-1.456 0.011,-2.465c0,-1.114 -0.458,-1.586 -0.598,-1.704c-0.153,-0.129 -0.215,-0.337 -0.157,-0.528c0.059,-0.192 0.226,-0.33 0.425,-0.352c2.374,-0.257 4.801,-1.061 4.801,-5.067c0,-1.036 -0.352,-1.939 -1.045,-2.687c-0.132,-0.142 -0.17,-0.348 -0.097,-0.528c0.101,-0.25 0.379,-1.116 -0.011,-2.321c-0.356,0.028 -1.172,0.202 -2.511,1.096c-0.12,0.08 -0.271,0.104 -0.409,0.066c-0.864,-0.235 -1.788,-0.357 -2.747,-0.363c-0.954,0.005 -1.877,0.127 -2.74,0.363c-0.14,0.039 -0.288,0.017 -0.41,-0.065c-1.341,-0.889 -2.16,-1.066 -2.528,-1.093c-0.422,1.309 -0.05,2.196 -0.003,2.299c0.084,0.184 0.048,0.401 -0.09,0.548c-0.696,0.746 -1.049,1.649 -1.049,2.686c0,4.008 2.423,4.815 4.793,5.077c0.198,0.022 0.364,0.159 0.423,0.35c0.059,0.19 0,0.397 -0.152,0.527c-0.166,0.142 -0.458,0.487 -0.559,1.2c-0.024,0.171 -0.136,0.318 -0.294,0.388c-0.614,0.27 -2.717,0.983 -3.98,-1.141c-0.004,-0.007 -0.088,-0.151 -0.246,-0.323c0.197,0.268 0.4,0.614 0.577,1.054c0.036,0.107 0.622,1.785 3.306,1.21c0.149,-0.032 0.301,0.006 0.417,0.1c0.117,0.094 0.186,0.236 0.187,0.387l0.014,1.92c0,0.325 -0.135,0.624 -0.371,0.819c-0.142,0.118 -0.373,0.242 -0.714,0.242zM12,1.5c-6.065,0 -11,4.835 -11,10.779c0,4.65 3.021,8.759 7.518,10.226c0.054,0.008 0.11,-0.01 0.121,-0.017l0.005,-0.623l-0.005,-0.755c-3.092,0.374 -3.848,-1.931 -3.856,-1.956c-0.417,-1.032 -0.994,-1.333 -1.019,-1.346c-0.281,-0.183 -0.865,-0.574 -0.698,-1.11c0.15,-0.484 0.765,-0.528 1.001,-0.526c1.437,0.098 2.162,1.364 2.192,1.417c0.701,1.177 1.77,1.066 2.471,0.82c0.062,-0.279 0.152,-0.538 0.269,-0.77c-2.281,-0.406 -4.836,-1.62 -4.836,-5.951c0,-1.192 0.374,-2.246 1.112,-3.134c-0.164,-0.537 -0.355,-1.647 0.208,-3.061c0.055,-0.14 0.171,-0.247 0.314,-0.292c0.194,-0.059 1.246,-0.284 3.4,1.093c0.883,-0.221 1.819,-0.335 2.785,-0.341c0.971,0.005 1.906,0.12 2.79,0.34c2.143,-1.377 3.193,-1.153 3.386,-1.093c0.144,0.045 0.259,0.152 0.314,0.292c0.549,1.38 0.378,2.494 0.216,3.057c0.739,0.892 1.113,1.946 1.113,3.14c0,4.329 -2.556,5.539 -4.839,5.942c0.239,0.476 0.369,1.062 0.369,1.709c0,1.013 -0.006,1.892 -0.011,2.473l-0.004,0.616c0.017,0.054 0.078,0.069 0.197,0.044c4.454,-1.435 7.487,-5.538 7.487,-10.194c0,-5.944 -4.935,-10.779 -11,-10.779z"></path></g></g></g></svg>