<?xml version="1.0" encoding="UTF-8" standalone="no"?>
<!DOCTYPE svg PUBLIC "-//W3C//DTD SVG 1.1//EN" "http://www.w3.org/Graphics/SVG/1.1/DTD/svg11.dtd">
<svg xmlns="http://www.w3.org/2000/svg" version="1.1" viewBox="0.00 0.00 221.00 67.00" width="221.00" height="67.00">
<path fill="#a5cd39" d="
  M 161.40 0.00
  C 168.54 2.31 164.31 11.80 158.52 8.93
  C 154.28 6.83 155.30 1.68 159.49 0.00
  L 161.40 0.00
  Z"
/>
<path fill="#a6a8ab" d="
  M 29.60 67.00
  L 24.09 67.00
  Q 22.04 66.65 20.02 66.15
  Q 5.28 62.52 1.08 47.97
  Q 0.45 45.81 0.00 43.59
  L 0.00 38.82
  C 2.02 22.57 15.52 13.08 31.30 15.38
  C 62.57 19.92 60.95 63.95 29.60 67.00
  Z
  M 46.56 41.14
  A 19.57 19.57 0.0 0 0 26.99 21.57
  A 19.57 19.57 0.0 0 0 7.42 41.14
  A 19.57 19.57 0.0 0 0 26.99 60.71
  A 19.57 19.57 0.0 0 0 46.56 41.14
  Z"
/>
<path fill="#a6a8ab" d="
  M 132.28 67.00
  L 126.37 67.00
  C 94.55 64.19 93.83 18.84 125.58 15.33
  Q 136.25 14.15 146.33 19.09
  A 0.40 0.39 -76.4 0 1 146.54 19.44
  L 146.54 27.00
  A 0.09 0.09 0.0 0 1 146.40 27.08
  C 136.48 20.89 120.70 18.58 112.98 29.71
  C 106.30 39.35 109.06 53.23 120.36 58.42
  C 128.76 62.29 139.11 59.76 146.74 54.66
  A 0.16 0.16 0.0 0 1 146.99 54.80
  L 146.99 62.40
  A 0.36 0.35 76.5 0 1 146.80 62.72
  Q 140.02 66.14 132.28 67.00
  Z"
/>
<rect fill="#a5cd39" x="156.89" y="15.39" width="7.22" height="50.60" rx="0.36"/>
<path fill="#a6a8ab" d="
  M 101.88 65.85
  A 0.09 0.09 0.0 0 1 101.81 65.99
  L 93.47 65.99
  A 0.37 0.35 72.4 0 1 93.17 65.82
  Q 88.21 57.74 82.33 49.71
  Q 77.71 43.42 70.76 44.29
  A 0.65 0.64 -3.5 0 0 70.19 44.93
  L 70.19 65.60
  A 0.40 0.40 0.0 0 1 69.79 66.00
  L 63.39 66.00
  A 0.39 0.39 0.0 0 1 63.00 65.61
  L 63.00 16.60
  A 0.57 0.57 0.0 0 1 63.57 16.03
  Q 75.47 15.91 78.30 16.15
  C 85.37 16.77 91.47 20.86 92.15 28.32
  Q 93.02 37.96 84.51 41.90
  A 0.42 0.41 52.7 0 0 84.42 42.59
  Q 88.97 46.49 90.74 49.29
  Q 96.25 58.03 101.88 65.85
  Z
  M 70.20 22.44
  L 70.18 37.32
  A 0.34 0.34 0.0 0 0 70.52 37.66
  L 76.76 37.67
  A 8.02 7.30 0.1 0 0 84.79 30.38
  L 84.79 29.42
  A 8.02 7.30 0.1 0 0 76.78 22.11
  L 70.54 22.10
  A 0.34 0.34 0.0 0 0 70.20 22.44
  Z"
/>
<path fill="#a5cd39" d="
  M 221.00 38.52
  L 221.00 43.29
  Q 218.34 59.46 204.50 64.25
  Q 198.84 66.21 190.31 66.02
  Q 182.66 65.84 175.66 66.00
  A 0.65 0.65 0.0 0 1 175.00 65.35
  L 175.00 16.59
  A 0.61 0.60 -89.5 0 1 175.61 15.98
  Q 182.06 16.03 190.53 15.92
  Q 199.39 15.81 204.79 17.75
  Q 218.33 22.62 221.00 38.52
  Z
  M 182.29 22.54
  L 182.29 59.08
  A 0.33 0.33 0.0 0 0 182.62 59.41
  L 195.11 59.41
  A 18.44 18.00 0.0 0 0 213.55 41.41
  L 213.55 40.21
  A 18.44 18.00 0.0 0 0 195.11 22.21
  L 182.62 22.21
  A 0.33 0.33 0.0 0 0 182.29 22.54
  Z"
/>
</svg>
