<svg xmlns="http://www.w3.org/2000/svg" xmlns:xlink="http://www.w3.org/1999/xlink" viewBox="0,0,256,256" width="48px" height="48px" fill-rule="nonzero"><g transform="translate(25.6,25.6) scale(0.8,0.8)"><g fill="#ffffff" fill-rule="nonzero" stroke="none" stroke-width="1" stroke-linecap="butt" stroke-linejoin="miter" stroke-miterlimit="10" stroke-dasharray="" stroke-dashoffset="0" font-family="none" font-weight="none" font-size="none" text-anchor="none" style="mix-blend-mode: normal"><g transform="scale(10.66667,10.66667)"><path d="M0,0v24h24v-24zM15.37109,5.60547c1.35,0 1.62891,0.95898 1.62891,0.95898l-0.57422,0.38477c0,0 -0.29469,-0.66992 -1.05469,-0.66992c-0.423,0 -1.05469,0.39069 -1.05469,1.05469v1.43555c0,0.718 0.35298,1.24805 0.95899,1.24805c0.755,0 1.15234,-0.58455 1.15234,-1.43555h-0.95898v-0.57422h1.62891c0,1.098 0.25073,2.67383 -1.82226,2.67383h-0.00195c-1.248,0 -1.72461,-0.84161 -1.72461,-1.72461v-1.72461c0,-0.654 0.47227,-1.62695 1.82227,-1.62695zM9.43359,8.59375c1.698,0 2.99414,0.77041 2.99414,2.44141c0,1.13 -0.89556,2.26092 -2.10156,2.54492c0.728,1.296 1.60677,2.4423 2.25977,3.1543c0.385,0.418 0.92103,0.78711 1.45703,0.78711v0.39063c-0.35488,0.16083 -1.77768,0.3211 -2.67773,-0.75977c-0.493,-0.568 -1.35376,-1.7852 -2.25977,-3.4082c-0.477,0 -0.78748,0.00075 -1.14648,-0.03125v2.48633c0,1.259 0.32181,1.13725 1.38281,1.28125v0.43359c-0.369,-0.016 -1.2382,-0.04492 -1.9082,-0.04492c-0.702,0 -1.39878,0.03292 -1.80078,0.04492v-0.43359h0.00195c0.831,-0.155 1.17773,-0.07125 1.17773,-1.28125v-5.85937c0,-1.21 -0.34273,-1.12625 -1.17773,-1.28125v-0.43359c1.382,0.054 2.84583,-0.03125 3.79883,-0.03125zM9.16602,9.26953c-0.402,0 -0.86208,-0.00075 -1.20508,0.03125v3.73437c0.344,0.026 0.56631,0.04102 1.07031,0.04102v0.00195c1.323,0 2.12695,-0.78794 2.12695,-1.96094c0,-1.194 -0.74419,-1.84766 -1.99219,-1.84766z"></path></g></g></g></svg>